<svg width="19" height="19" viewBox="0 0 19 19" fill="none" xmlns="http://www.w3.org/2000/svg">
<path d="M9.89657 18.968C9.36555 18.9696 8.85598 18.7586 8.48157 18.382L0.647566 10.547C0.234155 10.1348 0.0221763 9.56205 0.0675661 8.98L0.567566 2.414C0.638865 1.42638 1.42576 0.641616 2.41357 0.572996L8.97957 0.0729965C9.03057 0.0619965 9.08257 0.0619965 9.13357 0.0619965C9.66341 0.0633567 10.1713 0.273975 10.5466 0.647996L18.3816 8.482C18.7568 8.85709 18.9676 9.36592 18.9676 9.8965C18.9676 10.4271 18.7568 10.9359 18.3816 11.311L11.3106 18.382C10.9364 18.7583 10.4272 18.9693 9.89657 18.968ZM9.13257 2.062L2.56157 2.562L2.06157 9.133L9.89657 16.968L16.9666 9.898L9.13257 2.062ZM5.65357 7.654C4.69941 7.6542 3.87798 6.98036 3.69165 6.04457C3.50531 5.10878 4.00597 4.17168 4.88744 3.80638C5.7689 3.44107 6.78566 3.74931 7.31589 4.54258C7.84613 5.33585 7.74216 6.3932 7.06757 7.068C6.6934 7.44431 6.18424 7.65532 5.65357 7.654Z" fill="#00235C"/>
</svg>
