<svg width="21" height="21" viewBox="0 0 21 21" fill="none" xmlns="http://www.w3.org/2000/svg">
<path d="M0.00195312 10.502C0.00311667 15.4214 3.58036 19.6101 8.43895 20.381V13.392H5.90195V10.502H8.44195V8.30204C8.32841 7.25958 8.68447 6.22064 9.41359 5.46698C10.1427 4.71332 11.1693 4.32306 12.215 4.40204C12.9655 4.41417 13.7141 4.48101 14.455 4.60205V7.06104H13.191C12.7558 7.00405 12.3183 7.14777 12.0017 7.45171C11.6851 7.75566 11.5237 8.18693 11.563 8.62404V10.502H14.334L13.891 13.393H11.563V20.381C16.8174 19.5506 20.502 14.7518 19.9475 9.46112C19.3929 4.17041 14.7932 0.239973 9.48078 0.517223C4.16831 0.794472 0.0027976 5.18235 0.00195312 10.502Z" fill="white"/>
</svg>
