<svg width="132" height="40" viewBox="0 0 132 40" fill="none" xmlns="http://www.w3.org/2000/svg">
<g clip-path="url(#clip0_647_64)">
<rect x="1" y="1.5" width="129.324" height="37" fill="#00235C"/>
<path d="M55.5298 18.1309H53.2774C53.2474 17.8997 53.1858 17.6909 53.0927 17.5047C52.9996 17.3185 52.8765 17.1594 52.7233 17.0272C52.5701 16.8951 52.3884 16.7945 52.1782 16.7254C51.971 16.6533 51.7412 16.6173 51.489 16.6173C51.0415 16.6173 50.6556 16.7269 50.3312 16.9461C50.0099 17.1654 49.7621 17.4822 49.5879 17.8967C49.4167 18.3111 49.3311 18.8127 49.3311 19.4013C49.3311 20.014 49.4182 20.5275 49.5924 20.942C49.7696 21.3534 50.0174 21.6642 50.3357 21.8745C50.6571 22.0817 51.037 22.1853 51.4755 22.1853C51.7217 22.1853 51.9455 22.1538 52.1467 22.0907C52.3509 22.0276 52.5296 21.936 52.6828 21.8159C52.8389 21.6928 52.9666 21.5441 53.0657 21.3699C53.1678 21.1927 53.2384 20.993 53.2774 20.7708L55.5298 20.7843C55.4908 21.1927 55.3722 21.5952 55.174 21.9916C54.9787 22.388 54.71 22.7499 54.3676 23.0773C54.0252 23.4016 53.6078 23.6599 53.1152 23.8521C52.6257 24.0443 52.0641 24.1404 51.4304 24.1404C50.5955 24.1404 49.8477 23.9572 49.187 23.5908C48.5293 23.2214 48.0097 22.6838 47.6283 21.9781C47.2469 21.2723 47.0562 20.4134 47.0562 19.4013C47.0562 18.3862 47.2499 17.5258 47.6373 16.82C48.0247 16.1142 48.5488 15.5782 49.2095 15.2118C49.8702 14.8454 50.6105 14.6622 51.4304 14.6622C51.989 14.6622 52.5056 14.7403 52.9801 14.8964C53.4546 15.0496 53.872 15.2748 54.2324 15.5722C54.5928 15.8665 54.8856 16.2284 55.1109 16.6578C55.3361 17.0873 55.4758 17.5783 55.5298 18.1309ZM65.7675 19.4013C65.7675 20.4164 65.5723 21.2768 65.1818 21.9826C64.7914 22.6883 64.2628 23.2244 63.5961 23.5908C62.9324 23.9572 62.1876 24.1404 61.3617 24.1404C60.5328 24.1404 59.7865 23.9557 59.1228 23.5863C58.4591 23.2169 57.932 22.6808 57.5416 21.9781C57.1542 21.2723 56.9605 20.4134 56.9605 19.4013C56.9605 18.3862 57.1542 17.5258 57.5416 16.82C57.932 16.1142 58.4591 15.5782 59.1228 15.2118C59.7865 14.8454 60.5328 14.6622 61.3617 14.6622C62.1876 14.6622 62.9324 14.8454 63.5961 15.2118C64.2628 15.5782 64.7914 16.1142 65.1818 16.82C65.5723 17.5258 65.7675 18.3862 65.7675 19.4013ZM63.488 19.4013C63.488 18.8006 63.4024 18.2931 63.2312 17.8786C63.063 17.4642 62.8198 17.1504 62.5014 16.9371C62.1861 16.7239 61.8062 16.6173 61.3617 16.6173C60.9202 16.6173 60.5403 16.7239 60.222 16.9371C59.9036 17.1504 59.6589 17.4642 59.4877 17.8786C59.3195 18.2931 59.2354 18.8006 59.2354 19.4013C59.2354 20.0019 59.3195 20.5095 59.4877 20.9239C59.6589 21.3384 59.9036 21.6522 60.222 21.8655C60.5403 22.0787 60.9202 22.1853 61.3617 22.1853C61.8062 22.1853 62.1861 22.0787 62.5014 21.8655C62.8198 21.6522 63.063 21.3384 63.2312 20.9239C63.4024 20.5095 63.488 20.0019 63.488 19.4013ZM70.7333 24.0143H67.3231V14.7883H70.7288C71.6688 14.7883 72.4782 14.973 73.1569 15.3424C73.8386 15.7088 74.3642 16.2374 74.7336 16.9281C75.103 17.6159 75.2877 18.4388 75.2877 19.3968C75.2877 20.3578 75.103 21.1837 74.7336 21.8745C74.3672 22.5652 73.8431 23.0953 73.1614 23.4647C72.4797 23.8311 71.6703 24.0143 70.7333 24.0143ZM69.553 22.1132H70.6477C71.1642 22.1132 71.6012 22.0261 71.9586 21.8519C72.319 21.6748 72.5908 21.3879 72.774 20.9915C72.9602 20.5921 73.0533 20.0605 73.0533 19.3968C73.0533 18.7331 72.9602 18.2045 72.774 17.8111C72.5878 17.4146 72.313 17.1293 71.9496 16.9552C71.5892 16.778 71.1447 16.6894 70.6162 16.6894H69.553V22.1132ZM79.0732 14.7883V24.0143H76.8433V14.7883H79.0732ZM88.5788 14.7883V24.0143H86.6868L83.0153 18.6895H82.9567V24.0143H80.7268V14.7883H82.6459L86.2768 20.1041H86.3534V14.7883H88.5788ZM96.2892 17.8021C96.2382 17.6129 96.1631 17.4462 96.064 17.302C95.9649 17.1549 95.8432 17.0302 95.6991 16.9281C95.5549 16.826 95.3898 16.7494 95.2035 16.6984C95.0173 16.6443 94.8131 16.6173 94.5909 16.6173C94.1434 16.6173 93.756 16.7254 93.4286 16.9416C93.1043 17.1579 92.8535 17.4732 92.6763 17.8877C92.4991 18.2991 92.4105 18.7991 92.4105 19.3878C92.4105 19.9794 92.4961 20.484 92.6673 20.9014C92.8385 21.3189 93.0863 21.6372 93.4106 21.8564C93.735 22.0757 94.1284 22.1853 94.5909 22.1853C94.9993 22.1853 95.3447 22.1192 95.627 21.9871C95.9123 21.8519 96.1285 21.6612 96.2757 21.415C96.4229 21.1687 96.4964 20.8789 96.4964 20.5455L96.9109 20.5951H94.6675V18.9688H98.6453V20.1896C98.6453 21.0155 98.4696 21.7228 98.1182 22.3114C97.7698 22.9001 97.2893 23.3521 96.6766 23.6674C96.067 23.9827 95.3657 24.1404 94.5729 24.1404C93.6929 24.1404 92.9196 23.9497 92.2529 23.5683C91.5861 23.1869 91.0666 22.6433 90.6942 21.9375C90.3218 21.2288 90.1356 20.3879 90.1356 19.4148C90.1356 18.658 90.2482 17.9868 90.4734 17.4011C90.6987 16.8125 91.0125 16.314 91.415 15.9055C91.8204 15.4971 92.2889 15.1877 92.8205 14.9775C93.3551 14.7673 93.9302 14.6622 94.5458 14.6622C95.0804 14.6622 95.5775 14.7388 96.0369 14.8919C96.4994 15.0451 96.9079 15.2613 97.2623 15.5406C97.6197 15.8199 97.9095 16.1518 98.1317 16.5362C98.354 16.9206 98.4921 17.3426 98.5462 17.8021H96.2892ZM103.192 24.0143V14.7883H105.422V18.6895H105.544L108.594 14.7883H111.22L107.95 18.9058L111.279 24.0143H108.612L106.314 20.3879L105.422 21.5141V24.0143H103.192ZM114.583 14.7883V24.0143H112.353V14.7883H114.583ZM119.647 24.0143H116.237V14.7883H119.643C120.583 14.7883 121.392 14.973 122.071 15.3424C122.752 15.7088 123.278 16.2374 123.647 16.9281C124.017 17.6159 124.202 18.4388 124.202 19.3968C124.202 20.3578 124.017 21.1837 123.647 21.8745C123.281 22.5652 122.757 23.0953 122.075 23.4647C121.393 23.8311 120.584 24.0143 119.647 24.0143ZM118.467 22.1132H119.562C120.078 22.1132 120.515 22.0261 120.872 21.8519C121.233 21.6748 121.505 21.3879 121.688 20.9915C121.874 20.5921 121.967 20.0605 121.967 19.3968C121.967 18.7331 121.874 18.2045 121.688 17.8111C121.502 17.4146 121.227 17.1293 120.863 16.9552C120.503 16.778 120.059 16.6894 119.53 16.6894H118.467V22.1132Z" fill="white"/>
<rect x="1" y="1.5" width="35.9429" height="37" fill="white"/>
<path d="M26.6441 17.555H22.6398C22.5864 17.1439 22.4769 16.7728 22.3114 16.4418C22.1459 16.1107 21.927 15.8278 21.6547 15.5929C21.3824 15.3579 21.0594 15.1791 20.6856 15.0563C20.3172 14.9281 19.9088 14.8641 19.4603 14.8641C18.6648 14.8641 17.9787 15.0589 17.4021 15.4487C16.8308 15.8385 16.3903 16.4017 16.0807 17.1385C15.7763 17.8753 15.6242 18.767 15.6242 19.8134C15.6242 20.9026 15.779 21.8156 16.0887 22.5524C16.4037 23.2838 16.8442 23.8364 17.4101 24.2102C17.9814 24.5786 18.6568 24.7628 19.4363 24.7628C19.8741 24.7628 20.2719 24.7067 20.6296 24.5946C20.9926 24.4825 21.3103 24.3196 21.5826 24.1061C21.8602 23.8872 22.0872 23.6229 22.2634 23.3132C22.4449 22.9982 22.5703 22.6431 22.6398 22.248L26.6441 22.2721C26.5747 22.9982 26.3638 23.7136 26.0114 24.4184C25.6644 25.1232 25.1865 25.7665 24.5779 26.3485C23.9692 26.9251 23.2271 27.3843 22.3514 27.726C21.4812 28.0677 20.4828 28.2385 19.3562 28.2385C17.8719 28.2385 16.5425 27.9128 15.3679 27.2615C14.1986 26.6048 13.275 25.6491 12.5969 24.3944C11.9188 23.1397 11.5798 21.6127 11.5798 19.8134C11.5798 18.0088 11.9242 16.4791 12.6129 15.2245C13.3017 13.9698 14.2333 13.0167 15.4079 12.3654C16.5825 11.714 17.8986 11.3883 19.3562 11.3883C20.3493 11.3883 21.2676 11.5271 22.1112 11.8048C22.9548 12.0771 23.6969 12.4775 24.3376 13.0061C24.9783 13.5293 25.4988 14.1727 25.8993 14.9361C26.2997 15.6996 26.548 16.5726 26.6441 17.555Z" fill="#00235C"/>
</g>
<rect x="0.5" y="1" width="130.324" height="38" stroke="white"/>
<defs>
<clipPath id="clip0_647_64">
<rect x="1" y="1.5" width="129.324" height="37" fill="white"/>
</clipPath>
</defs>
</svg>
