<svg width="47" height="25" viewBox="0 0 47 25" fill="none" xmlns="http://www.w3.org/2000/svg">
<rect width="47" height="25" rx="5" fill="#FFE6E5"/>
<path d="M17.7292 7.81818V18H16.3173L11.1419 10.5327H11.0474V18H9.51119V7.81818H10.9331L16.1135 15.2955H16.2079V7.81818H17.7292ZM23.142 18.1541C22.3897 18.1541 21.7417 17.9934 21.1982 17.6719C20.6579 17.3471 20.2403 16.8913 19.9453 16.3047C19.6536 15.7147 19.5078 15.0237 19.5078 14.2315C19.5078 13.4493 19.6536 12.7599 19.9453 12.1634C20.2403 11.5668 20.6513 11.1011 21.1783 10.7663C21.7086 10.4316 22.3284 10.2642 23.0376 10.2642C23.4685 10.2642 23.8861 10.3355 24.2905 10.478C24.6948 10.6205 25.0578 10.8442 25.3793 11.1491C25.7008 11.4541 25.9543 11.8501 26.1399 12.3374C26.3255 12.8213 26.4183 13.4096 26.4183 14.1023V14.6293H20.348V13.5156H24.9616C24.9616 13.1245 24.8821 12.7782 24.723 12.4766C24.5639 12.1716 24.3402 11.9313 24.0518 11.7557C23.7668 11.58 23.4321 11.4922 23.0476 11.4922C22.63 11.4922 22.2654 11.5949 21.9538 11.8004C21.6456 12.0026 21.407 12.2678 21.2379 12.5959C21.0722 12.9207 20.9893 13.2737 20.9893 13.6548V14.5249C20.9893 15.0353 21.0788 15.4695 21.2578 15.8274C21.4401 16.1854 21.6937 16.4588 22.0185 16.6477C22.3433 16.8333 22.7228 16.9261 23.157 16.9261C23.4387 16.9261 23.6955 16.8864 23.9276 16.8068C24.1596 16.724 24.3601 16.6013 24.5291 16.4389C24.6982 16.2765 24.8274 16.076 24.9169 15.8374L26.3239 16.0909C26.2112 16.5052 26.009 16.8681 25.7173 17.1797C25.429 17.4879 25.0661 17.7282 24.6286 17.9006C24.1944 18.0696 23.6989 18.1541 23.142 18.1541ZM29.7095 18L27.4624 10.3636H28.9986L30.495 15.9716H30.5696L32.071 10.3636H33.6072L35.0987 15.9467H35.1733L36.6598 10.3636H38.196L35.9538 18H34.4375L32.8864 12.4865H32.772L31.2209 18H29.7095Z" fill="#FF463A"/>
</svg>
