<svg width="18" height="19" viewBox="0 0 18 19" fill="none" xmlns="http://www.w3.org/2000/svg">
<path d="M8.95572 7.85598V11.307H13.7477C13.3017 13.5 11.4347 14.76 8.95572 14.76C6.06826 14.7202 3.74838 12.3682 3.74838 9.48048C3.74838 6.59275 6.06826 4.24072 8.95572 4.20098C10.1559 4.19954 11.3192 4.61605 12.2457 5.37898L14.8457 2.77898C11.8633 0.157048 7.50772 -0.180185 4.15727 1.95142C0.806827 4.08303 -0.733259 8.17119 0.377966 11.9836C1.48919 15.796 4.98466 18.4164 8.95572 18.414C13.4227 18.414 17.4847 15.165 17.4847 9.47998C17.4778 8.93262 17.4108 8.38768 17.2847 7.85498L8.95572 7.85598Z" fill="white"/>
</svg>
