<svg width="19" height="19" viewBox="0 0 19 19" fill="none" xmlns="http://www.w3.org/2000/svg">
<path d="M9.00195 18.541C6.54195 18.541 6.25195 18.528 5.29195 18.486C4.54332 18.4614 3.80439 18.3092 3.10695 18.036C1.90026 17.5664 0.946094 16.6119 0.476953 15.405C0.214259 14.705 0.072571 13.9655 0.0579531 13.218C0.00195312 12.26 0.00195312 11.946 0.00195312 9.505C0.00195312 7.038 0.0149531 6.75 0.0579531 5.795C0.0728908 5.04853 0.214574 4.31001 0.476953 3.611C0.945584 2.40253 1.9013 1.44718 3.10995 0.979005C3.8086 0.715207 4.5473 0.573149 5.29395 0.559005C6.24895 0.505005 6.56295 0.505005 9.00195 0.505005C11.482 0.505005 11.767 0.518005 12.712 0.559005C13.4605 0.573271 14.2012 0.715315 14.902 0.979005C16.1103 1.44771 17.0658 2.40288 17.535 3.611C17.8021 4.3202 17.9445 5.07026 17.956 5.828C18.012 6.78601 18.012 7.09901 18.012 9.53901C18.012 11.979 17.998 12.299 17.956 13.246C17.9411 13.9942 17.799 14.7344 17.536 15.435C17.0656 16.6427 16.11 17.5976 14.902 18.067C14.2022 18.3292 13.4631 18.4709 12.716 18.486C11.761 18.541 11.448 18.541 9.00195 18.541ZM8.96795 2.088C6.52195 2.088 6.26795 2.1 5.31295 2.143C4.74294 2.15056 4.17843 2.25575 3.64395 2.454C2.85471 2.75601 2.23018 3.378 1.92495 4.166C1.72517 4.7063 1.61996 5.27698 1.61395 5.853C1.56095 6.822 1.56095 7.076 1.56095 9.505C1.56095 11.905 1.56995 12.196 1.61395 13.159C1.62291 13.7292 1.72805 14.2938 1.92495 14.829C2.23063 15.6165 2.85505 16.238 3.64395 16.54C4.17807 16.7396 4.7428 16.8448 5.31295 16.851C6.28095 16.907 6.53595 16.907 8.96795 16.907C11.421 16.907 11.675 16.895 12.622 16.851C13.1924 16.8441 13.7573 16.7389 14.292 16.54C15.0764 16.2354 15.6969 15.6153 16.002 14.831C16.2014 14.2903 16.3065 13.7193 16.313 13.143H16.324C16.367 12.187 16.367 11.932 16.367 9.48901C16.367 7.04601 16.356 6.789 16.313 5.834C16.304 5.26446 16.1988 4.70052 16.002 4.166C15.6976 3.38058 15.077 2.7593 14.292 2.454C13.7574 2.25475 13.1924 2.14953 12.622 2.143C11.655 2.088 11.402 2.088 8.96795 2.088ZM9.00195 14.124C7.13194 14.1252 5.44537 12.9997 4.72882 11.2725C4.01226 9.54518 4.40686 7.55634 5.72858 6.23347C7.05031 4.9106 9.03882 4.51428 10.7667 5.22934C12.4946 5.9444 13.6215 7.62999 13.622 9.5C13.6192 12.0511 11.553 14.119 9.00195 14.124ZM9.00195 6.498C7.3451 6.498 6.00195 7.84115 6.00195 9.498C6.00195 11.1549 7.3451 12.498 9.00195 12.498C10.6588 12.498 12.002 11.1549 12.002 9.498C11.9981 7.84275 10.6572 6.50185 9.00195 6.498ZM13.802 5.78501C13.2074 5.7828 12.7269 5.29959 12.728 4.70501C12.7291 4.11043 13.2114 3.62901 13.806 3.62901C14.4005 3.62901 14.8828 4.11042 14.884 4.705C14.8842 4.99187 14.7702 5.26703 14.5672 5.46968C14.3642 5.67234 14.0888 5.7858 13.802 5.78501Z" fill="white"/>
</svg>
